<svg viewBox="0 0 201 94" xmlns="http://www.w3.org/2000/svg" xmlns:svg="http://www.w3.org/2000/svg">
 <defs>
  <linearGradient id="paint0_linear" x1="0.5" x2="0.5" y1="-0.17" y2="1.17">
   <stop stop-color="#003D84"/>
   <stop offset="1" stop-color="white"/>
  </linearGradient>
  <linearGradient id="paint1_linear" x1="0.51" x2="0.51" y1="1.18" y2="-0.18">
   <stop stop-color="#003D84"/>
   <stop offset="1" stop-color="white"/>
  </linearGradient>
  <linearGradient id="paint2_linear" x1="-0.23" x2="1.26" y1="0.5" y2="0.5">
   <stop stop-color="#003D84"/>
   <stop offset="1" stop-color="white"/>
  </linearGradient>
  <linearGradient id="paint3_linear" x1="0" x2="1.29" y1="1.29" y2="0.05">
   <stop stop-color="#003D84"/>
   <stop offset="1" stop-color="white"/>
  </linearGradient>
  <linearGradient id="paint4_linear" x1="-0.26" x2="0.83" y1="0.04" y2="1.17">
   <stop stop-color="#003D84"/>
   <stop offset="1" stop-color="white"/>
  </linearGradient>
  <linearGradient id="paint5_linear" x1="-0.18" x2="1.18" y1="0.5" y2="0.5">
   <stop stop-color="#003D84"/>
   <stop offset="1" stop-color="white"/>
  </linearGradient>
  <linearGradient id="paint6_linear" x1="0.5" x2="0.5" y1="1.25" y2="-0.25">
   <stop stop-color="#003D84"/>
   <stop offset="1" stop-color="white"/>
  </linearGradient>
  <linearGradient id="paint7_linear" x1="0.5" x2="0.5" y1="-0.25" y2="1.25">
   <stop stop-color="#003D84"/>
   <stop offset="1" stop-color="white"/>
  </linearGradient>
  <linearGradient id="paint8_linear" x1="1.3" x2="-0.22" y1="0.54" y2="0.48">
   <stop stop-color="#003D84"/>
   <stop offset="1" stop-color="white"/>
  </linearGradient>
  <linearGradient id="paint9_linear" x1="1.25" x2="0.03" y1="0.95" y2="-0.31">
   <stop stop-color="#003D84"/>
   <stop offset="1" stop-color="white"/>
  </linearGradient>
  <linearGradient id="paint10_linear" x1="1.06" x2="-0.3" y1="-0.44" y2="1.07">
   <stop stop-color="#003D84"/>
   <stop offset="1" stop-color="white"/>
  </linearGradient>
  <linearGradient id="paint11_linear" x1="1.16" x2="-0.19" y1="0.5" y2="0.5">
   <stop stop-color="#003D84"/>
   <stop offset="1" stop-color="white"/>
  </linearGradient>
  <clipPath id="clip0">
   <rect fill="white" height="94" id="svg_1" width="201"/>
  </clipPath>
 </defs>
 <g class="layer">
  <title>Layer 1</title>
  <g clip-path="url(#clip0)" id="svg_2">
   <g id="svg_80">
    <path d="m71.54,7.48l59.45,0c1.98,0 3.87,0.81 5.13,2.16c1.35,1.34 2.15,3.14 2.15,5.12l0,59.4c0,1.98 -0.8,3.86 -2.15,5.12c-1.35,1.35 -3.15,2.16 -5.13,2.16l-59.45,0c-1.97,0 -3.86,-0.81 -5.12,-2.16c-1.35,-1.34 -2.16,-3.14 -2.16,-5.12l0,-59.4c0,-1.98 0.81,-3.87 2.16,-5.12c1.26,-1.35 3.15,-2.16 5.12,-2.16z" fill="#003D84" id="svg_66"/>
    <path d="m73.34,44.41c0,7.73 4.14,14.47 10.26,18.16c-1.89,-3.15 -3.06,-6.92 -3.06,-10.88c0,-2.51 0.45,-5.03 1.26,-7.28c-0.81,-2.24 -1.26,-4.67 -1.26,-7.27c0,-3.96 1.08,-7.73 3.06,-10.88c-6.12,3.78 -10.26,10.52 -10.26,18.15z" fill="url(#paint0_linear)" id="svg_68"/>
    <path d="m119.93,26.26c1.89,3.15 3.06,6.92 3.06,10.88c0,2.51 -0.45,5.03 -1.26,7.27c0.81,2.25 1.26,4.68 1.26,7.28c0,3.96 -1.08,7.73 -3.06,10.88c6.11,-3.69 10.25,-10.43 10.25,-18.16c0.09,-7.63 -4.05,-14.37 -10.25,-18.15z" fill="url(#paint1_linear)" id="svg_69"/>
    <path d="m90.88,55.38c2.52,4.13 6.3,7.37 10.88,8.99c4.59,-1.71 8.46,-4.86 10.88,-8.99c-3.14,1.89 -6.92,3.05 -10.88,3.05c-3.96,-0.09 -7.73,-1.16 -10.88,-3.05z" fill="url(#paint2_linear)" id="svg_70"/>
    <path d="m112.73,55.38c4.14,-2.52 7.38,-6.29 9,-10.88c0.81,2.25 1.26,4.68 1.26,7.28c0,3.96 -1.08,7.73 -3.06,10.88c-3.15,1.88 -6.93,3.05 -10.88,3.05c-2.52,0 -5.04,-0.45 -7.29,-1.25c4.59,-1.8 8.46,-4.95 10.97,-9.08z" fill="url(#paint3_linear)" id="svg_71"/>
    <path d="m80.63,51.69c0,4.05 1.08,7.73 3.06,10.97c3.14,1.88 6.92,3.05 10.88,3.05c2.52,0 5.03,-0.45 7.28,-1.25c-4.58,-1.71 -8.45,-4.86 -10.88,-8.99c-4.14,-2.52 -7.37,-6.29 -8.99,-10.88c-0.9,2.16 -1.35,4.59 -1.35,7.1z" fill="url(#paint4_linear)" id="svg_72"/>
    <path d="m83.6,62.66c3.68,6.11 10.43,10.24 18.16,10.24c7.74,0 14.48,-4.13 18.17,-10.24c-3.15,1.88 -6.93,3.05 -10.88,3.05c-2.52,0 -5.04,-0.45 -7.29,-1.25c-2.25,0.8 -4.67,1.25 -7.28,1.25c-3.96,-0.09 -7.65,-1.17 -10.88,-3.05z" fill="url(#paint5_linear)" id="svg_73"/>
    <path d="m112.73,33.54c1.89,3.15 3.06,6.92 3.06,10.88c0,3.95 -1.08,7.72 -3.06,10.87c4.14,-2.52 7.38,-6.29 9,-10.87c-1.71,-4.59 -4.86,-8.36 -9,-10.88z" fill="url(#paint6_linear)" id="svg_74"/>
    <path d="m81.89,44.42c1.71,4.58 4.85,8.44 8.99,10.87c-1.89,-3.15 -3.06,-6.92 -3.06,-10.87c0,-3.96 1.08,-7.73 3.06,-10.88c-4.14,2.52 -7.37,6.29 -8.99,10.88z" fill="url(#paint7_linear)" id="svg_75"/>
    <path d="m90.88,33.54c3.15,-1.89 6.92,-3.05 10.88,-3.05c3.96,0 7.74,1.07 10.88,3.05c-2.51,-4.13 -6.29,-7.37 -10.88,-8.99c-4.58,1.71 -8.36,4.86 -10.88,8.99z" fill="url(#paint8_linear)" id="svg_76"/>
    <path d="m119.93,26.26c1.89,3.15 3.06,6.92 3.06,10.88c0,2.51 -0.45,5.03 -1.26,7.27c-1.71,-4.58 -4.86,-8.35 -9,-10.87c-2.51,-4.13 -6.29,-7.37 -10.88,-8.99c2.25,-0.8 4.68,-1.25 7.29,-1.25c3.86,0 7.64,1.07 10.79,2.96z" fill="url(#paint9_linear)" id="svg_77"/>
    <path d="m80.63,37.14c0,2.6 0.45,5.03 1.26,7.27c1.71,-4.58 4.85,-8.44 8.99,-10.87c2.52,-4.13 6.3,-7.37 10.88,-8.99c-2.25,-0.8 -4.67,-1.25 -7.28,-1.25c-3.96,0 -7.74,1.07 -10.88,3.05c-1.89,3.15 -2.97,6.83 -2.97,10.79z" fill="url(#paint10_linear)" id="svg_78"/>
    <path d="m83.6,26.26c3.14,-1.89 6.92,-3.05 10.88,-3.05c2.52,0 5.03,0.45 7.28,1.25c2.25,-0.8 4.68,-1.25 7.29,-1.25c3.95,0 7.73,1.07 10.88,3.05c-3.69,-6.11 -10.43,-10.24 -18.17,-10.24c-7.64,0 -14.39,4.13 -18.16,10.24z" fill="url(#paint11_linear)" id="svg_79"/>
   </g>
  </g>
 </g>
</svg>