<svg version="1.1" xmlns="http://www.w3.org/2000/svg" xmlns:xlink="http://www.w3.org/1999/xlink" width="700" height="700" viewBox="610,145.5,700,700">
<defs>
<clipPath id="clip-1">
<rect x="175.55168" y="19.72923" transform="scale(3.47762,7.42553)" width="201" height="94" id="clip-1" fill="none"/>
</clipPath>
<clipPath id="clip-2">
<rect x="175.55168" y="19.72923" transform="scale(3.47762,7.42553)" width="201" height="94" id="clip-2" fill="none"/>
</clipPath>
<linearGradient x1="744.70804" y1="265.48182" x2="744.70804" y2="724.6688" gradientUnits="userSpaceOnUse" id="color-1">
<stop offset="0" stop-color="#003d84"/>
<stop offset="1" stop-color="#ffffff"/>
</linearGradient>
<linearGradient x1="1185.66503" y1="728.09557" x2="1185.66503" y2="262.05505" gradientUnits="userSpaceOnUse" id="color-2">
<stop offset="0" stop-color="#003d84"/>
<stop offset="1" stop-color="#ffffff"/>
</linearGradient>
<linearGradient x1="814.64803" y1="640.97958" x2="1120.86836" y2="640.97958" gradientUnits="userSpaceOnUse" id="color-3">
<stop offset="0" stop-color="#003d84"/>
<stop offset="1" stop-color="#ffffff"/>
</linearGradient>
<linearGradient x1="964.67544" y1="754.09692" x2="1223.33499" y2="505.88601" gradientUnits="userSpaceOnUse" id="color-4">
<stop offset="0" stop-color="#003d84"/>
<stop offset="1" stop-color="#ffffff"/>
</linearGradient>
<linearGradient x1="713.00026" y1="504.69971" x2="931.45463" y2="729.93211" gradientUnits="userSpaceOnUse" id="color-5">
<stop offset="0" stop-color="#003d84"/>
<stop offset="1" stop-color="#ffffff"/>
</linearGradient>
<linearGradient x1="731.39666" y1="715.58329" x2="1198.04864" y2="715.58329" gradientUnits="userSpaceOnUse" id="color-6">
<stop offset="0" stop-color="#003d84"/>
<stop offset="1" stop-color="#ffffff"/>
</linearGradient>
<linearGradient x1="1110.78515" y1="649.02508" x2="1110.78515" y2="341.12554" gradientUnits="userSpaceOnUse" id="color-7">
<stop offset="0" stop-color="#003d84"/>
<stop offset="1" stop-color="#ffffff"/>
</linearGradient>
<linearGradient x1="819.46297" y1="341.12554" x2="819.46297" y2="649.02508" gradientUnits="userSpaceOnUse" id="color-8">
<stop offset="0" stop-color="#003d84"/>
<stop offset="1" stop-color="#ffffff"/>
</linearGradient>
<linearGradient x1="1129.089" y1="353.41415" x2="816.70322" y2="348.32355" gradientUnits="userSpaceOnUse" id="color-9">
<stop offset="0" stop-color="#003d84"/>
<stop offset="1" stop-color="#ffffff"/>
</linearGradient>
<linearGradient x1="1215.10205" y1="485.06681" x2="971.51531" y2="234.04162" gradientUnits="userSpaceOnUse" id="color-10">
<stop offset="0" stop-color="#003d84"/>
<stop offset="1" stop-color="#ffffff"/>
</linearGradient>
<linearGradient x1="1191.18611" y1="275.41671" x2="727.96539" y2="275.41671" gradientUnits="userSpaceOnUse" id="color-11">
<stop offset="0" stop-color="#003d84"/>
<stop offset="1" stop-color="#ffffff"/>
</linearGradient>
<linearGradient x1="976.64945" y1="208.1422" x2="705.23858" y2="508.97397" gradientUnits="userSpaceOnUse" id="color-12">
<stop offset="0" stop-color="#003d84"/>
<stop offset="1" stop-color="#ffffff"/>
</linearGradient>
</defs>
<g id="document" fill="#ffffff" fill-rule="nonzero" stroke="#000000" stroke-width="0" stroke-linecap="butt" stroke-linejoin="miter" stroke-miterlimit="10" stroke-dasharray="" stroke-dashoffset="0" font-family="none" font-weight="none" font-size="none" text-anchor="none" style="mix-blend-mode: normal">
<rect x="610" y="103.92857" transform="scale(1,1.4)" width="700" height="500" id="Shape 1 1" vector-effect="non-scaling-stroke"/>
</g>
<g fill="none" fill-rule="nonzero" stroke="none" stroke-width="1" stroke-linecap="butt" stroke-linejoin="miter" stroke-miterlimit="10" stroke-dasharray="" stroke-dashoffset="0" font-family="none" font-weight="none" font-size="none" text-anchor="none" style="mix-blend-mode: normal">
<g>
<g id="stage">
<g id="layer1 1">
<g clip-path="url(#clip-1)" id="Group 1">
<g id="Group 1">
<g clip-path="url(#clip-2)" id="Group 1">
<g id="Group 1">
<g id="Group 1">
<path d="M679.25617,146.5h561.48822c18.70053,0 36.55104,7.65539 48.45138,20.41437c12.75036,12.66448 20.30612,29.67645 20.30612,48.38962v561.39524c0,18.71318 -7.55575,36.48124 -20.30612,48.38962c-12.75036,12.75898 -29.75085,20.41437 -48.45138,20.41437h-561.48822c-18.60607,0 -36.45658,-7.65539 -48.35692,-20.41437c-12.75036,-12.66448 -20.40058,-29.67645 -20.40058,-48.38962v-561.39524c0,-18.71318 7.65022,-36.57575 20.40058,-48.38962c11.90034,-12.75898 29.75085,-20.41437 48.35692,-20.41437z" id="Path 1" fill="#003d84"/>
<path d="M696.25666,495.02812c0,72.95214 39.10112,136.56111 96.90276,171.38561c-17.85051,-29.72823 -28.90082,-65.30773 -28.90082,-102.68037c0,-23.68821 4.25012,-47.4708 11.90034,-68.70525c-7.65022,-21.14008 -11.90034,-44.07328 -11.90034,-68.61087c0,-37.37263 10.20029,-72.95214 28.90082,-102.68037c-57.80165,35.67388 -96.90276,99.28286 -96.90276,171.29124z" id="Path 1" fill="url(#color-1)"/>
<path d="M1136.28588,323.73688c17.85051,29.72823 28.90082,65.30773 28.90082,102.68037c0,23.68821 -4.25012,47.4708 -11.90034,68.61087c7.65022,21.23445 11.90034,44.16766 11.90034,68.70525c0,37.37263 -10.20029,72.95214 -28.90082,102.68037c57.70718,-34.8245 96.8083,-98.43348 96.8083,-171.38561c0.85002,-72.00838 -38.25109,-135.61736 -96.8083,-171.29124z" id="Path 1" fill="url(#color-2)"/>
<path d="M861.91698,598.55787c23.80068,38.97701 59.5017,69.55462 102.75847,84.84343c43.35124,-16.13818 79.90228,-45.86641 102.75847,-84.84343c-29.65638,17.83694 -65.3574,28.78448 -102.75847,28.78448c-37.40107,-0.84938 -73.00762,-10.94754 -102.75847,-28.78448z" id="Path 1" fill="url(#color-3)"/>
<path d="M1068.28394,598.55787c39.10112,-23.78259 69.70199,-59.36209 85.00242,-102.68037c7.65022,21.23445 11.90034,44.16766 11.90034,68.70525c0,37.37263 -10.20029,72.95214 -28.90082,102.68037c-29.75085,17.74256 -65.45187,28.78448 -102.75847,28.78448c-23.80068,0 -47.60136,-4.24689 -68.85196,-11.79692c43.35124,-16.98756 79.90228,-46.71579 103.60849,-85.69281z" id="Path 1" fill="url(#color-4)"/>
<path d="M765.10862,563.73337c0,38.22201 10.20029,72.95214 28.90082,103.52975c29.65638,17.74256 65.3574,28.78448 102.75847,28.78448c23.80068,0 47.50689,-4.24689 68.7575,-11.79692c-43.25677,-16.13818 -79.80781,-45.86641 -102.75847,-84.84343c-39.10112,-23.78259 -69.60752,-59.36209 -84.90796,-102.68037c-8.50024,20.38507 -12.75036,43.31828 -12.75036,67.00649z" id="Path 1" fill="url(#color-5)"/>
<path d="M793.15942,667.26312c34.75653,57.66333 98.50835,96.64035 171.51602,96.64035c73.10209,0 136.75944,-38.97701 171.61043,-96.64035c-29.75085,17.74256 -65.45187,28.78448 -102.75847,28.78448c-23.80068,0 -47.60136,-4.24689 -68.85196,-11.79692c-21.25061,7.55003 -44.10679,11.79692 -68.7575,11.79692c-37.40107,-0.84938 -72.25206,-11.04191 -102.75847,-28.78448z" id="Path 1" fill="url(#color-6)"/>
<path d="M1068.28394,392.44213c17.85051,29.72823 28.90082,65.30773 28.90082,102.68037c0,37.27826 -10.20029,72.85776 -28.90082,102.58599c39.10112,-23.78259 69.70199,-59.36209 85.00242,-102.58599c-16.15046,-43.31828 -45.90131,-78.89778 -85.00242,-102.68037z" id="Path 1" fill="url(#color-7)"/>
<path d="M777.00896,495.1225c16.15046,43.2239 45.80684,79.65279 84.90796,102.58599c-17.85051,-29.72823 -28.90082,-65.30773 -28.90082,-102.58599c0,-37.37263 10.20029,-72.95214 28.90082,-102.68037c-39.10112,23.78259 -69.60752,59.36209 -84.90796,102.68037z" id="Path 1" fill="url(#color-8)"/>
<path d="M861.91698,392.44213c29.75085,-17.83694 65.3574,-28.78448 102.75847,-28.78448c37.40107,0 73.10209,10.09816 102.75847,28.78448c-23.70621,-38.97701 -59.40723,-69.55462 -102.75847,-84.84343c-43.25677,16.13818 -78.95779,45.86641 -102.75847,84.84343z" id="Path 1" fill="url(#color-9)"/>
<path d="M1136.28588,323.73688c17.85051,29.72823 28.90082,65.30773 28.90082,102.68037c0,23.68821 -4.25012,47.4708 -11.90034,68.61087c-16.15046,-43.2239 -45.90131,-78.80341 -85.00242,-102.58599c-23.70621,-38.97701 -59.40723,-69.55462 -102.75847,-84.84343c21.25061,-7.55003 44.20126,-11.79692 68.85196,-11.79692c36.45658,0 72.1576,10.09816 101.90844,27.9351z" id="Path 1" fill="url(#color-10)"/>
<path d="M793.15942,323.73688c29.65638,-17.83694 65.3574,-28.78448 102.75847,-28.78448c23.80068,0 47.50689,4.24689 68.7575,11.79692c21.25061,-7.55003 44.20126,-11.79692 68.85196,-11.79692c37.3066,0 73.00762,10.09816 102.75847,28.78448c-34.85099,-57.66333 -98.50835,-96.64035 -171.61043,-96.64035c-72.1576,0 -135.90941,38.97701 -171.51602,96.64035z" id="Path 1" fill="url(#color-11)"/>
</g>
<path d="M765.10862,426.41725c0,24.53759 4.25012,47.4708 11.90034,68.61087c16.15046,-43.2239 45.80684,-79.65279 84.90796,-102.58599c23.80068,-38.97701 59.5017,-69.55462 102.75847,-84.84343c-21.25061,-7.55003 -44.10679,-11.79692 -68.7575,-11.79692c-37.40107,0 -73.10209,10.09816 -102.75847,28.78448c-17.85051,29.72823 -28.0508,64.45836 -28.0508,101.83099z" id="Path 1" fill="url(#color-12)"/>
</g>
</g>
</g>
</g>
</g>
</g>
</g>
</g>
</svg>
